PathFileType	4	(X/Y/Z)	C:/Users/opensim2020/Desktop/walking_exp_matlab/subject06_walking19_straight_01.trc																																																																																																																																																	
DataRate	CameraRate	NumFrames	NumMarkers	Units	OrigDataRate	OrigDataStartFrame	OrigNumFrames																																																																																																																																													
100	100	8	49	mm	100	920	472																																																																																																																																													
Frame#	Time	LFHD			RFHD			LBHD			RBHD			C7			T10			CLAV			STRN			RBAK			LSHO			LUPA			LELB			LFRM			LWRA			LWRB			LFIN			RSHO			RUPA			RELB			RFRM			RWRA			RWRB			RFIN			LASI			RASI			LPSI			RPSI			LTHI			LKNE			LTIB			LANK			LHEE			LTOE			RTHI			RKNE			RTIB			RANK			RHEE			RTOE			*39			*40			*41			*42			*43			*44			*45			*46			*47			*48		
		X1	Y1	Z1	X2	Y2	Z2	X3	Y3	Z3	X4	Y4	Z4	X5	Y5	Z5	X6	Y6	Z6	X7	Y7	Z7	X8	Y8	Z8	X9	Y9	Z9	X10	Y10	Z10	X11	Y11	Z11	X12	Y12	Z12	X13	Y13	Z13	X14	Y14	Z14	X15	Y15	Z15	X16	Y16	Z16	X17	Y17	Z17	X18	Y18	Z18	X19	Y19	Z19	X20	Y20	Z20	X21	Y21	Z21	X22	Y22	Z22	X23	Y23	Z23	X24	Y24	Z24	X25	Y25	Z25	X26	Y26	Z26	X27	Y27	Z27	X28	Y28	Z28	X29	Y29	Z29	X30	Y30	Z30	X31	Y31	Z31	X32	Y32	Z32	X33	Y33	Z33	X34	Y34	Z34	X35	Y35	Z35	X36	Y36	Z36	X37	Y37	Z37	X38	Y38	Z38	X39	Y39	Z39	X40	Y40	Z40	X41	Y41	Z41	X42	Y42	Z42	X43	Y43	Z43	X44	Y44	Z44	X45	Y45	Z45	X46	Y46	Z46	X47	Y47	Z47	X48	Y48	Z48	X49	Y49	Z49
																																																																																																																																																				
60	0.59	-917.20422	1678.39746	1394.39001	-914.19672	1663.85583	1524.94165	-1046.96802	1615.94409	1393.52979	-1042.76172	1606.25256	1522.51855	-1040.0011	1463.49194	1440.51758	-1083.5498	1137.58972	1440.69958	-930.47485	1384.84863	1443.45508	-895.69446	1207.32507	1430.75415	-1116.32568	1292.33313	1514.12036	-972.18524	1422.3678	1281.87598	-945.54156	1221.77637	1209.07971	-929.02222	1109.52576	1198.60742	-854.00006	977.11963	1197.28333	-772.24902	893.98322	1267.20337	-812.17932	867.48706	1214.57715	-745.992	808.57257	1234.07715	-978.82086	1413.31995	1602.87524	-1026.72778	1216.55603	1687.60034	-1021.25592	1093.97656	1697.43835	-1004.06036	974.81543	1711.90295	-938.34259	838.79108	1675.39917	-992.69226	837.48352	1715.77502	-952.59583	763.20563	1716.27759	-924.68262	965.87592	1322.24182	-907.06573	974.77295	1541.77734	-1077.37244	1002.97424	1359.35632	-1059.80847	1011.08258	1527.00049	-1013.83887	651.83502	1263.35181	-1016.65253	487.47873	1276.10693	-1193.50647	308.03601	1289.0614	-1305.61035	177.89597	1330.69275	-1341.1593	191.33492	1379.45813	-1222.17627	57.75441	1329.73145	-959.79016	645.86481	1597.6582	-955.64093	521.04474	1571.07092	-993.59003	258.34464	1562.98889	-1004.39484	72.86865	1513.37915	-1045.72522	49.06354	1471.07874	-850.99506	41.66252	1503.98645	-1019.11584	1708.84058	1455.47192	NaN	NaN	NaN	NaN	NaN	NaN	NaN	NaN	NaN	NaN	NaN	NaN	NaN	NaN	NaN	NaN	NaN	NaN	NaN	NaN	NaN	NaN	NaN	NaN	NaN	NaN	NaN
61	0.6	-912.39709	1678.52563	1395.27234	-909.06946	1663.94397	1525.78467	-1042.13501	1616.11584	1394.69092	-1037.70276	1606.37732	1523.62878	-1035.22302	1463.70276	1441.87305	-1078.85486	1137.71875	1442.24634	-925.70538	1384.95349	1444.16736	-891.03619	1207.4657	1431.40393	-1111.20398	1292.57068	1515.93616	-968.27338	1422.47864	1282.77209	-942.80194	1221.78796	1209.77075	-926.80377	1109.46313	1199.12231	-853.06104	976.54633	1196.80151	-770.93707	892.42407	1265.08362	-811.95966	866.31915	1212.95142	-745.93207	806.89972	1231.35999	-973.06958	1413.52234	1603.87683	-1020.47675	1216.75598	1688.93848	-1014.84314	1094.15173	1698.79248	-997.21234	975.0246	1713.17896	-931.64124	839.13135	1676.10889	-985.51886	837.74408	1716.87549	-945.25775	763.51569	1717.10803	-919.15948	966.6969	1323.6698	-902.34241	974.70221	1542.54932	-1072.92896	1003.03735	1360.57361	-1054.99646	1011.03204	1528.1969	-1005.8623	651.89331	1263.98975	-1006.14709	487.63824	1276.45227	-1183.56555	309.25204	1289.40491	-1296.32288	179.89075	1330.89612	-1331.66382	192.68474	1380.32495	-1212.76868	60.33414	1327.02771	-956.04663	645.61615	1598.03406	-952.84192	520.72528	1571.49097	-992.30261	258.29929	1563.23682	-1004.17316	72.86341	1513.39417	-1045.70569	49.18359	1471.1123	-850.90698	41.56824	1503.86243	-1014.19714	1708.99463	1456.59192	NaN	NaN	NaN	NaN	NaN	NaN	NaN	NaN	NaN	NaN	NaN	NaN	NaN	NaN	NaN	NaN	NaN	NaN	NaN	NaN	NaN	NaN	NaN	NaN	NaN	NaN	NaN
62	0.61	-907.65601	1678.63977	1396.11938	-904.09149	1664.05042	1526.63574	-1037.4104	1616.27124	1395.77393	-1032.70605	1606.51685	1524.69934	-1030.4884	1463.94214	1443.13464	-1074.28088	1137.93213	1443.76587	-920.95117	1385.17371	1444.9342	-886.5976	1207.62292	1432.00684	-1106.23511	1292.90845	1517.76196	-964.49603	1422.61951	1283.62634	-940.2215	1221.79639	1210.4082	-924.80219	1109.42358	1199.56921	-852.17645	975.89856	1195.9718	-769.94672	890.89026	1262.87524	-811.60352	865.15436	1211.26074	-745.98584	805.26965	1228.66467	-967.4024	1413.70325	1604.79626	-1014.30316	1217.00085	1690.26721	-1008.50958	1094.37024	1700.17334	-990.45215	975.30444	1714.41235	-924.59644	839.63263	1676.89978	-978.36945	838.06805	1717.99915	-937.9917	764.05975	1718.05505	-915.45459	966.78528	1323.95154	-897.59766	974.79913	1543.42493	-1068.39575	1003.08917	1361.7948	-1050.21997	1010.94537	1529.33643	-998.01788	652.20605	1264.5719	-995.94019	488.07349	1276.82104	-1173.47937	310.30408	1289.8363	-1286.27319	181.10016	1331.12024	-1321.42419	193.0509	1381.19275	-1202.27942	62.61948	1324.27307	-952.46265	645.37317	1598.39478	-950.30817	520.37238	1571.89551	-991.27405	258.17163	1563.47058	-1004.06995	72.88194	1513.42419	-1045.71069	49.24871	1471.13391	-850.85962	41.43567	1503.88123	-1009.28894	1709.10474	1457.6781	NaN	NaN	NaN	NaN	NaN	NaN	NaN	NaN	NaN	NaN	NaN	NaN	NaN	NaN	NaN	NaN	NaN	NaN	NaN	NaN	NaN	NaN	NaN	NaN	NaN	NaN	NaN
63	0.62	-902.91669	1678.72046	1396.90857	-899.06238	1664.11255	1527.34485	-1032.6875	1616.47595	1396.79993	-1027.69177	1606.67224	1525.74097	-1025.8988	1464.1355	1444.34998	-1069.70056	1138.07922	1445.20972	-916.2829	1385.40149	1445.66882	-882.18518	1207.76697	1432.56165	-1101.29077	1293.22351	1519.56665	-960.73608	1422.74792	1284.48474	-937.81451	1221.81213	1210.98511	-922.92987	1109.38928	1200.00159	-851.46667	975.25299	1195.11621	-769.68762	889.07129	1260.60669	-811.95374	864.15009	1209.54773	-746.34839	803.58984	1225.89282	-961.73676	1413.86926	1605.68567	-1008.17511	1217.25232	1691.64172	-1001.86963	1094.56873	1701.58057	-983.57306	975.56335	1715.47754	-917.6803	840.11774	1677.6145	-971.16119	838.39996	1719.04236	-930.49878	764.44666	1718.81543	-910.23187	967.63013	1325.1886	-893.45758	974.67151	1544.04382	-1063.80615	1003.19482	1362.89758	-1045.53918	1010.87213	1530.43164	-990.19531	652.64691	1265.14905	-985.98303	488.6604	1277.21228	-1163.22729	311.13849	1290.3241	-1275.63745	181.59207	1331.32703	-1310.46887	192.50789	1382.05566	-1190.8833	64.3508	1321.22827	-949.0033	645.15527	1598.8302	-948.00616	520.14661	1572.52417	-990.36475	258.10617	1563.75476	-1003.98785	72.89614	1513.50635	-1045.76001	49.36182	1471.17102	-850.7757	41.24217	1503.94958	-1004.38507	1709.27246	1458.65601	NaN	NaN	NaN	NaN	NaN	NaN	NaN	NaN	NaN	NaN	NaN	NaN	NaN	NaN	NaN	NaN	NaN	NaN	NaN	NaN	NaN	NaN	NaN	NaN	NaN	NaN	NaN
64	0.63	-897.77533	1678.99219	1397.71228	-894.00525	1664.20337	1528.03528	-1028.02112	1616.72241	1397.77393	-1022.75824	1606.88147	1526.73621	-1021.36798	1464.33447	1445.53406	-1065.16174	1138.27869	1446.60095	-911.83557	1385.4989	1446.29321	-877.6701	1207.98584	1433.19971	-1096.40137	1293.57043	1521.33752	-957.10181	1422.88513	1285.33069	-935.51563	1221.85742	1211.52795	-921.28137	1109.44849	1200.33826	-850.85602	974.67462	1194.18335	-768.69751	887.70715	1258.37048	-812.39307	863.1106	1207.77881	-747.17383	801.92993	1223.08057	-956.23962	1414.07275	1606.49646	-1001.94196	1217.4657	1692.89868	-995.73572	1094.81311	1702.81384	-975.78021	975.51984	1715.5918	-910.83508	840.64294	1678.20837	-964.00067	838.73877	1719.94666	-923.11304	764.90662	1719.45886	-905.49841	968.17938	1326.06885	-888.76624	974.87067	1545.01526	-1059.11865	1003.23425	1363.89063	-1040.92554	1010.76166	1531.50085	-982.40216	653.1731	1265.66162	-976.15027	489.32281	1277.7041	-1152.70996	311.51608	1290.81189	-1264.24866	181.19186	1331.53503	-1298.81384	191.02806	1382.86292	-1178.45776	65.5256	1318.4729	-945.71851	644.97229	1599.30566	-945.60767	519.76123	1573.12488	-989.54199	258.04123	1563.96802	-1003.88928	72.90662	1513.52197	-1045.78247	49.46338	1471.16052	-850.72742	41.00371	1504.04736	-999.50024	1709.51025	1459.58411	NaN	NaN	NaN	NaN	NaN	NaN	NaN	NaN	NaN	NaN	NaN	NaN	NaN	NaN	NaN	NaN	NaN	NaN	NaN	NaN	NaN	NaN	NaN	NaN	NaN	NaN	NaN
65	0.64	-893.15485	1679.10205	1398.30054	-889.11969	1664.35376	1528.72729	-1023.49078	1616.99683	1398.77039	-1017.84473	1607.18164	1527.71313	-1016.97162	1464.53906	1446.71423	-1060.66272	1138.45276	1447.95105	-907.33807	1385.76379	1446.97046	-873.19318	1208.25159	1433.84021	-1091.66028	1293.89624	1523.0354	-953.55939	1423.08545	1286.07861	-933.30579	1221.94666	1212.02283	-919.70074	1109.46509	1200.68665	-850.54346	974.17993	1193.32825	-768.41431	886.14545	1256.03235	-813.06146	862.16162	1206.01111	-748.15015	800.3537	1220.28369	-950.9212	1414.30566	1607.32959	-995.82172	1217.69031	1694.14294	-989.32196	1095.00464	1704.14917	-969.10785	975.90253	1716.76147	-903.97522	841.21637	1678.70447	-956.79791	839.08716	1720.89941	-915.57861	765.42175	1720.04749	-900.71576	968.79651	1327.03564	-883.35297	975.30426	1546.59863	-1054.50061	1003.53424	1364.91321	-1036.42639	1010.71204	1532.49072	-974.72284	653.72913	1266.21399	-966.57556	490.09521	1278.21741	-1141.83936	311.42429	1291.40698	-1252.29382	180.0677	1331.75085	-1286.58618	188.7581	1383.64551	-1165.03589	66.25202	1315.66199	-942.56146	644.64014	1599.70703	-943.22223	519.41315	1573.81506	-988.70172	257.94467	1564.1875	-1003.85779	72.9549	1513.58044	-1045.82434	49.60937	1471.15063	-850.47668	40.6204	1504.17407	-994.65686	1709.75659	1460.45898	NaN	NaN	NaN	NaN	NaN	NaN	NaN	NaN	NaN	NaN	NaN	NaN	NaN	NaN	NaN	NaN	NaN	NaN	NaN	NaN	NaN	NaN	NaN	NaN	NaN	NaN	NaN
66	0.65	-888.54492	1679.17163	1398.8894	-884.10632	1664.46729	1529.24414	-1018.97845	1617.31055	1399.79016	-1013.01263	1607.4989	1528.69409	-1012.63599	1464.72131	1447.86108	-1056.09851	1138.53748	1449.2041	-903.03925	1385.96863	1447.52063	-868.74823	1208.50842	1434.42639	-1086.88647	1294.12341	1524.63745	-950.01172	1423.27356	1286.88159	-931.14111	1222.03918	1212.51807	-918.52313	1109.55896	1200.92896	-850.69617	973.59839	1192.37463	-768.37506	884.58118	1253.6925	-814.09937	861.17212	1204.25977	-749.47803	798.66272	1217.39941	-945.70959	1414.53455	1608.08057	-989.72076	1217.9115	1695.42175	-984.01929	1095.5354	1705.15881	-962.30658	976.17145	1717.76196	-897.1499	841.77704	1679.15356	-949.40167	839.34424	1721.80273	-908.04291	765.90826	1720.63135	-895.11591	969.68457	1328.4054	-878.73645	975.44025	1547.87439	-1049.80139	1003.77875	1365.85547	-1031.95435	1010.62231	1533.4447	-967.19092	654.35486	1266.68689	-957.25146	490.93256	1278.7782	-1130.84814	310.91504	1291.98218	-1239.6781	178.18471	1331.98047	-1273.81335	185.54945	1384.27393	-1150.5553	66.66571	1313.02307	-939.5116	644.46796	1600.29626	-940.84595	519.12244	1574.53003	-987.79578	257.83386	1564.46472	-1003.74139	72.96407	1513.71729	-1045.74792	49.77731	1471.17737	-850.1405	40.1102	1504.47217	-989.81641	1710.00305	1461.37915	NaN	NaN	NaN	NaN	NaN	NaN	NaN	NaN	NaN	NaN	NaN	NaN	NaN	NaN	NaN	NaN	NaN	NaN	NaN	NaN	NaN	NaN	NaN	NaN	NaN	NaN	NaN
67	0.66	-884.38879	1679.13733	1399.3031	-879.27435	1664.57617	1529.71033	-1014.52515	1617.62427	1400.73181	-1008.17847	1607.91858	1529.62622	-1008.36945	1464.86206	1448.96143	-1051.61548	1138.64246	1450.43494	-898.70856	1386.18262	1448.19263	-864.31146	1208.78198	1435.0531	-1082.22192	1294.26575	1526.17883	-946.56378	1423.51306	1287.6261	-928.99902	1222.16492	1212.96191	-916.96259	1109.47278	1201.29431	-850.59851	973.04114	1191.39075	-768.46497	883.00928	1251.27722	-815.15179	860.17133	1202.50977	-751.26196	796.92151	1214.54041	-940.62878	1414.73083	1608.83301	-983.73419	1218.11023	1696.58984	-977.91888	1095.802	1706.27295	-955.59125	976.46393	1718.72656	-890.28088	842.3136	1679.51965	-942.18707	839.70776	1722.66016	-900.54291	766.42401	1721.04285	-890.63086	970.16418	1329.34924	-875.09418	975.20477	1548.70544	-1045.09521	1004.02545	1366.68652	-1027.52417	1010.58148	1534.31299	-959.6756	654.93933	1267.14648	-948.10321	491.75317	1279.50208	-1119.57214	310.05713	1292.61401	-1226.33838	175.47816	1332.25696	-1260.29932	181.48393	1384.96655	-1134.80396	66.54955	1310.67444	-936.48212	644.12921	1600.78137	-938.3092	518.86383	1575.12732	-986.91718	257.81387	1564.82141	-1003.60217	73.02928	1513.87146	-1045.6554	50.01699	1471.23413	-849.65784	39.43012	1504.83203	-984.95984	1710.29053	1462.16516	NaN	NaN	NaN	NaN	NaN	NaN	NaN	NaN	NaN	NaN	NaN	NaN	NaN	NaN	NaN	NaN	NaN	NaN	NaN	NaN	NaN	NaN	NaN	NaN	NaN	NaN	NaN
